<?xml version="1.0" encoding="utf-8"?>
<!-- Generator: Adobe Illustrator 23.1.0, SVG Export Plug-In . SVG Version: 6.00 Build 0)  -->
<svg version="1.1" xmlns="http://www.w3.org/2000/svg" xmlns:xlink="http://www.w3.org/1999/xlink" x="0px" y="0px"
	 viewBox="0 0 500 500" style="enable-background:new 0 0 500 500;" xml:space="preserve">
<style type="text/css">
	.st0{fill:#263238;stroke:#263238;stroke-width:2.5;stroke-linecap:round;stroke-linejoin:round;stroke-miterlimit:10;}
	.st1{fill:#FFFFFF;stroke:#263238;stroke-width:2.5;stroke-linecap:round;stroke-linejoin:round;stroke-miterlimit:10;}
	.st2{fill:#FF644C;stroke:#263238;stroke-width:2.5;stroke-linecap:round;stroke-linejoin:round;stroke-miterlimit:10;}
	.st3{fill:none;stroke:#263238;stroke-width:2.5;stroke-linecap:round;stroke-linejoin:round;stroke-miterlimit:10;}
	.st4{fill:#40A2E3;stroke:#263238;stroke-width:2.5;stroke-linecap:round;stroke-linejoin:round;stroke-miterlimit:10;}
	.st5{fill:#40A2E3;}
	.st6{fill:#FFFFFF;}
	.st7{fill:#FF644C;}
	.st8{fill:#F0BA92;stroke:#263238;stroke-width:2.5;stroke-linecap:round;stroke-linejoin:round;stroke-miterlimit:10;}
	.st9{fill:#EC644E;}
	.st10{fill:#F0BA92;}
</style>
<g id="Shadow">
</g>
<g id="Tab">
</g>
<g id="Floor">
</g>
<g id="Window">
</g>
<g id="Plant">
</g>
<g id="Envelopes">
</g>
<g id="Character">
	<g>
		<ellipse class="st0" cx="307.9" cy="429.5" rx="164.4" ry="27"/>
		<ellipse class="st0" cx="90.7" cy="413.5" rx="36" ry="7.7"/>
		<g>
			<g>
				<g>
					<g>
						<path class="st1" d="M63,31.4v215.4c0,3.4,2.7,6.1,6.1,6.1h126.4c3.4,0,6.1-2.7,6.1-6.1V31.4c0-3.4-2.7-6.1-6.1-6.1H69.1
							C65.7,25.3,63,28,63,31.4z"/>
					</g>
				</g>
				<rect x="143.7" y="45.1" class="st2" width="57.8" height="30.7"/>
				<g>
					
						<rect x="73.5" y="112.8" transform="matrix(-1 -1.224647e-16 1.224647e-16 -1 165.2939 239.8609)" class="st3" width="18.3" height="14.3"/>
					<polyline class="st3" points="91.8,112.8 82.5,120.8 73.5,112.8 					"/>
				</g>
				<g>
					
						<rect x="73.5" y="201.8" transform="matrix(-1 -1.224647e-16 1.224647e-16 -1 165.2939 417.9)" class="st3" width="18.3" height="14.3"/>
					<polyline class="st3" points="91.8,201.8 82.5,209.8 73.5,201.8 					"/>
				</g>
				<g>
					
						<rect x="73.5" y="230.4" transform="matrix(-1 -1.224647e-16 1.224647e-16 -1 165.2939 475.2333)" class="st3" width="18.3" height="14.3"/>
					<polyline class="st3" points="91.8,230.5 82.5,238.5 73.5,230.4 					"/>
				</g>
				<g>
					<line class="st3" x1="110.4" y1="211.1" x2="102.8" y2="211.1"/>
				</g>
				<g>
					
						<rect x="73.5" y="169.5" transform="matrix(-1 -1.224647e-16 1.224647e-16 -1 165.2939 353.2371)" class="st3" width="18.3" height="14.3"/>
					<polyline class="st3" points="91.8,169.5 82.5,177.5 73.5,169.5 					"/>
				</g>
				<g>
					<line class="st3" x1="110.4" y1="176.8" x2="102.8" y2="176.8"/>
				</g>
				<g>
					
						<rect x="73.5" y="140.8" transform="matrix(-1 -1.224647e-16 1.224647e-16 -1 165.2939 295.8609)" class="st3" width="18.3" height="14.3"/>
					<polyline class="st3" points="91.8,140.8 82.5,148.8 73.5,140.8 					"/>
				</g>
				<g>
					<line class="st3" x1="110.4" y1="150.1" x2="102.8" y2="150.1"/>
				</g>
				<line class="st3" x1="201.6" y1="45.1" x2="63" y2="45.1"/>
				<g>
					<path class="st0" d="M100.5,35.7c0,0.8,0.6,1.5,1.4,1.5s1.4-0.7,1.4-1.5c0-0.8-0.6-1.5-1.4-1.5S100.5,34.9,100.5,35.7z"/>
					<path class="st0" d="M87.1,35.7c0,0.8,0.6,1.5,1.4,1.5c0.8,0,1.4-0.7,1.4-1.5c0-0.8-0.6-1.5-1.4-1.5
						C87.7,34.2,87.1,34.9,87.1,35.7z"/>
					<path class="st0" d="M73.7,35.7c0,0.8,0.6,1.5,1.4,1.5c0.8,0,1.4-0.7,1.4-1.5c0-0.8-0.6-1.5-1.4-1.5
						C74.3,34.2,73.7,34.9,73.7,35.7z"/>
				</g>
				<line class="st3" x1="143.4" y1="45.1" x2="143.4" y2="252.9"/>
				<line class="st3" x1="143.4" y1="75.6" x2="63" y2="75.6"/>
				<line class="st3" x1="143.4" y1="104.4" x2="63" y2="104.4"/>
				<line class="st3" x1="143.3" y1="133.2" x2="63" y2="133.1"/>
				<line class="st3" x1="143.4" y1="162.1" x2="63" y2="161.9"/>
				<line class="st3" x1="143.4" y1="191.7" x2="63" y2="191.6"/>
				<line class="st3" x1="143.4" y1="221.8" x2="63" y2="222.1"/>
			</g>
			<g>
				<g>
					<line class="st3" x1="164.4" y1="145.7" x2="156.1" y2="145.7"/>
					<line class="st3" x1="164.4" y1="153.8" x2="150.4" y2="153.8"/>
				</g>
				<g>
					
						<rect x="170.4" y="145.1" transform="matrix(-1 -1.224647e-16 1.224647e-16 -1 353.1515 299.8392)" class="st1" width="12.3" height="9.6"/>
					<polyline class="st3" points="182.7,145.1 176.5,150.5 170.4,145.1 					"/>
				</g>
			</g>
			<g>
				<path class="st1" d="M120.4,127.4h12c1.1,0,2-0.9,2-2v-12c0-1.1-0.9-2-2-2h-12c-1.1,0-2,0.9-2,2v12
					C118.4,126.5,119.3,127.4,120.4,127.4z"/>
				<path class="st1" d="M120.4,155.4h12c1.1,0,2-0.9,2-2v-12c0-1.1-0.9-2-2-2h-12c-1.1,0-2,0.9-2,2v12
					C118.4,154.5,119.3,155.4,120.4,155.4z"/>
				<path class="st1" d="M120.4,214.4h12c1.1,0,2-0.9,2-2v-12c0-1.1-0.9-2-2-2h-12c-1.1,0-2,0.9-2,2v12
					C118.4,213.5,119.3,214.4,120.4,214.4z"/>
				<path class="st1" d="M120.4,184.7h12c1.1,0,2-0.9,2-2v-12c0-1.1-0.9-2-2-2h-12c-1.1,0-2,0.9-2,2v12
					C118.4,183.9,119.3,184.7,120.4,184.7z"/>
				<path class="st1" d="M120.4,244.4h12c1.1,0,2-0.9,2-2v-12c0-1.1-0.9-2-2-2h-12c-1.1,0-2,0.9-2,2v12
					C118.4,243.5,119.3,244.4,120.4,244.4z"/>
			</g>
			<g>
				<line class="st3" x1="110.4" y1="64.8" x2="102.8" y2="64.8"/>
			</g>
			<g>
				<line class="st3" x1="165.4" y1="56" x2="157.1" y2="56"/>
				<line class="st3" x1="165.4" y1="64.2" x2="151.4" y2="64.2"/>
			</g>
			<g>
				<path class="st3" d="M125.8,85.4"/>
				<path class="st3" d="M110.4,85.4"/>
				<line class="st3" x1="110.4" y1="94.1" x2="102.8" y2="94.1"/>
				<line class="st3" x1="110.4" y1="121.4" x2="102.8" y2="121.4"/>
			</g>
			<g>
				<line class="st3" x1="110.4" y1="241.1" x2="102.8" y2="241.1"/>
			</g>
			<g>
				<path class="st1" d="M120.4,68.4h12c1.1,0,2-0.9,2-2v-12c0-1.1-0.9-2-2-2h-12c-1.1,0-2,0.9-2,2v12
					C118.4,67.5,119.3,68.4,120.4,68.4z"/>
			</g>
			<g>
				<path class="st1" d="M120.4,97.7h12c1.1,0,2-0.9,2-2v-12c0-1.1-0.9-2-2-2h-12c-1.1,0-2,0.9-2,2v12
					C118.4,96.8,119.3,97.7,120.4,97.7z"/>
			</g>
			<g>
				
					<rect x="73.5" y="53.4" transform="matrix(-1 -1.224647e-16 1.224647e-16 -1 165.2939 121.1943)" class="st3" width="18.3" height="14.3"/>
				<polyline class="st3" points="91.8,53.4 82.5,61.4 73.5,53.4 				"/>
			</g>
			<g>
				
					<rect x="171.4" y="53.4" transform="matrix(-1 -1.224647e-16 1.224647e-16 -1 361.1427 121.1943)" class="st3" width="18.3" height="14.3"/>
				<polyline class="st3" points="189.7,53.4 180.4,61.4 171.4,53.4 				"/>
			</g>
			<g>
				<g>
					<line class="st3" x1="164.4" y1="85.7" x2="156.1" y2="85.7"/>
					<line class="st3" x1="164.4" y1="93.8" x2="150.4" y2="93.8"/>
				</g>
				<g>
					
						<rect x="170.4" y="85.1" transform="matrix(-1 -1.224647e-16 1.224647e-16 -1 353.1515 179.8392)" class="st1" width="12.3" height="9.6"/>
					<polyline class="st3" points="182.7,85.1 176.5,90.5 170.4,85.1 					"/>
				</g>
			</g>
			<g>
				<g>
					<line class="st3" x1="164.4" y1="115.7" x2="156.1" y2="115.7"/>
					<line class="st3" x1="164.4" y1="123.8" x2="150.4" y2="123.8"/>
				</g>
				<g>
					
						<rect x="170.4" y="115.1" transform="matrix(-1 -1.224647e-16 1.224647e-16 -1 353.1515 239.8392)" class="st1" width="12.3" height="9.6"/>
					<polyline class="st3" points="182.7,115.1 176.5,120.5 170.4,115.1 					"/>
				</g>
			</g>
			<g>
				
					<rect x="73.5" y="83.1" transform="matrix(-1 -1.224647e-16 1.224647e-16 -1 165.2939 180.5276)" class="st3" width="18.3" height="14.3"/>
				<polyline class="st3" points="91.8,83.1 82.5,91.1 73.5,83.1 				"/>
			</g>
		</g>
		<line class="st3" x1="24.9" y1="387.9" x2="483.2" y2="387.9"/>
		<path class="st3" d="M297.7,37.2v208h164.2v-208H297.7z M450.9,136H385V48.2h65.9V136z M374.6,48.2V136h-65.9V48.2H374.6z
			 M308.7,146.5h65.9v87.8h-65.9V146.5z M385,234.2v-87.8h65.9v87.8H385z"/>
		<g>
			<g>
				<path class="st1" d="M90.5,360H51.7c1,15.2,5.1,30.1,12,43.7l2.4,4.7v0c0,3.6,11,6.5,24.5,6.5c13.5,0,24.5-2.9,24.5-6.5l0,0
					l2.4-4.7c6.9-13.6,11-28.5,12-43.7H90.5z"/>
				<path class="st1" d="M129.4,360c0,1.2-7.4,2.3-18.5,2.9c-1,0.1-2,0.1-3,0.1c-1.8,0.1-3.6,0.1-5.5,0.2c-0.6,0-1.2,0-1.9,0
					c-0.4,0-0.9,0-1.3,0c-1.3,0-2.7,0.1-4,0.1c-1.5,0-3,0-4.5,0h-0.2c-1.4,0-2.7,0-4,0c-0.4,0-0.9,0-1.4,0c-2.2,0-4.4-0.1-6.5-0.1
					c-0.3,0-0.6,0-0.9,0c-2.7-0.1-5.2-0.2-7.6-0.3c-11-0.6-18.2-1.7-18.2-2.9c0-1.1,6.1-2.1,15.6-2.7c2.2-0.1,4.5-0.3,7-0.4
					c1,0,2.1-0.1,3.1-0.1c0.2,0,0.4,0,0.5,0c1.9-0.1,3.9-0.1,6-0.1c1.3,0,2.6,0,3.9,0h0c0.4,0,0.8,0,1.1,0c0,0,0.1,0,0.1,0
					c0.5,0,0.9,0,1.4,0h0.6c1.2,0,2.3,0,3.5,0h0c0.6,0,1.1,0,1.7,0c0.1,0,0.1,0,0.2,0c1.7,0,3.4,0.1,5,0.1c1.7,0,3.4,0.1,5,0.2
					c0.3,0,0.6,0,0.9,0c2.1,0.1,4.2,0.2,6.1,0.3C123.1,357.9,129.4,358.9,129.4,360z"/>
			</g>
			<g>
				<path class="st4" d="M78.5,363.2c-0.3,0-0.6,0-0.9,0c-2.7-0.1-5.2-0.2-7.6-0.3c-0.6-1.4-1.5-3.2-2.7-5.6
					c-0.1-0.3-0.3-0.5-0.4-0.8c-5-9.9-20.7-37.7-21.4-38.8c0.2,0.2,1.5,1.9,11.8,15.4c6.2,8.1,12.4,17.1,17,23.8
					c1.3,1.9,2.4,3.6,3.4,5C77.9,362.4,78.2,362.8,78.5,363.2z"/>
				<path class="st4" d="M135.2,317.8c-1.1,1.9-16.4,28.9-21.3,38.7c-0.1,0.3-0.3,0.5-0.4,0.8c-1.2,2.4-2,4.2-2.7,5.6
					c-1,0.1-2,0.1-3,0.1c-1.8,0.1-3.6,0.1-5.5,0.2c1.1-1.7,2.6-3.9,4.2-6.3c0.3-0.4,0.6-0.9,0.9-1.4c4.5-6.6,10.3-14.9,16-22.4
					C133.1,320.4,134.9,318.1,135.2,317.8z"/>
				<g>
					<path class="st4" d="M97.3,341.7c0,0,0.2-12.1,4.8-29.2c4.6-17.1,16.6-37.2,16.6-37.2s-23.7,37.4-28.9,51.9
						c-5.2,14.5-6.6,23.1-6.6,23.1l14.1,0.4L97.3,341.7z"/>
					<path class="st4" d="M98.2,345.7c0,0-4.3-11.3-6.4-28.9c-2.1-17.6,1.5-40.7,1.5-40.7s-8,43.6-7.5,59
						c0.5,15.4,2.5,23.9,2.5,23.9l13.2-4.9L98.2,345.7z"/>
				</g>
				<g>
					<path class="st4" d="M148.2,298.1c-2,1.9-17.7,16.6-26.5,30.6c-1.7,2.8-3.3,5.4-4.7,7.9c-3.1,5.6-5.2,10.3-6.6,13.6
						c-1.2,3-1.8,4.8-1.9,5c0,0,0,0,0,0l-0.5,1.5c-1.3,0-2.7,0.1-4,0.1c-1.5,0-3,0-4.5,0h-0.2c-1.4,0-2.7,0-4,0c-0.4,0-0.9,0-1.4,0
						c0.3-0.5,0.5-1,0.9-1.6c0.5-0.9,1.1-1.8,1.8-2.9c0.2-0.3,0.3-0.5,0.5-0.8c0.3-0.5,0.6-0.9,0.9-1.4c0,0,0-0.1,0.1-0.1
						c0.6-1,1.3-2,2-3.1c0.5-0.8,1.1-1.6,1.6-2.4c1.2-1.7,2.4-3.5,3.9-5.4c0.3-0.4,0.7-0.9,1.1-1.4c0.8-1,1.6-2,2.6-3.1
						c2.6-2.9,5.8-6.2,9.3-9.6C130.8,313.3,146.2,299.9,148.2,298.1z"/>
					<path class="st4" d="M123,292c-1.1,2.4-10.2,21.9-13.2,38.3c-0.1,0.5-0.2,1-0.3,1.4c-0.7,4.2-1.2,8-1.5,11.4
						c-0.5,5.3-0.6,9.5-0.6,12.4c0,0.5,0,1,0,1.4c0,1.8,0.1,2.8,0.1,2.8l0.3,3.2c-1.8,0.1-3.6,0.1-5.5,0.2c-0.6,0-1.2,0-1.9,0
						c-0.4,0-0.9,0-1.3,0c-1.3,0-2.7,0.1-4,0.1c0.3-1.8,0.7-4.1,1.2-6.7c0-0.1,0-0.2,0.1-0.2c0-0.2,0.1-0.3,0.1-0.5
						c0.6-2.7,1.3-5.8,2.2-9.1v0c0.1-0.3,0.1-0.5,0.2-0.8c0.4-1.4,0.9-3,1.5-4.7C106.1,325.1,121.4,295.1,123,292z"/>
				</g>
				<g>
					<path class="st4" d="M100.4,363.2c-0.4,0-0.9,0-1.3,0c-1.3,0-2.7,0.1-4,0.1c-1.5,0-3,0-4.5,0h-0.2c-1.4,0-2.7,0-4,0l-0.5-1.6
						l-0.1-0.2c0,0-0.3-1-1-2.8c-0.2-0.6-0.5-1.3-0.8-2.1c-1-2.4-2.4-5.5-4.2-9.2c-0.7-1.4-1.5-2.9-2.4-4.5
						c-1.4-2.5-2.9-5.2-4.6-7.9c-8.8-14.1-24.4-28.8-26.4-30.7c2,1.7,17.4,15.1,29.6,27.1c2.4,2.4,4.7,4.7,6.7,6.9
						c0.9,0.9,1.7,1.8,2.5,2.7c0.4,0.4,0.7,0.8,1.1,1.3c1,1.1,1.9,2.2,2.6,3.2c0.8,1.1,1.6,2.2,2.4,3.3v0c0.6,0.8,1.1,1.5,1.6,2.3
						c1.3,1.8,2.4,3.5,3.4,5c0.1,0.1,0.1,0.2,0.2,0.3c0.1,0.1,0.1,0.2,0.2,0.2c1.3,2,2.3,3.7,3.1,5.1
						C99.9,362.3,100.2,362.8,100.4,363.2z"/>
					<path class="st4" d="M90.3,363.4c-1.4,0-2.7,0-4,0c-0.4,0-0.9,0-1.4,0c-2.2,0-4.4-0.1-6.5-0.1c-0.3,0-0.6,0-0.9,0l0.1-1.2
						l0.2-2.4c0,0,0-0.3,0.1-1c0-0.4,0-1,0-1.8c0-0.7,0-1.6,0-2.6c0-2.8-0.2-6.7-0.6-11.3c-0.3-3.4-0.8-7.3-1.5-11.4
						c-0.1-0.5-0.2-1-0.3-1.4c-2.9-16.3-12-35.9-13.1-38.3c1.4,2.8,14.2,27.8,20.8,44.6c0.7,1.7,1.3,3.3,1.8,4.8
						c0.5,1.5,1,2.9,1.3,4.2c0,0,0,0,0,0c0.1,0.2,0.1,0.4,0.1,0.5c1.1,4.1,1.9,7.7,2.5,10.7c0,0,0,0.1,0,0.1
						c0.1,0.7,0.3,1.3,0.4,1.9c0,0.1,0.1,0.3,0.1,0.4C89.9,360.6,90.1,362.1,90.3,363.4z"/>
				</g>
			</g>
		</g>
		<g>
			<g>
				<path class="st1" d="M222.4,157h36c3.5,0,6.4-2.9,6.4-6.4v-18.5c0-3.5-2.9-6.4-6.4-6.4h-36c-3.5,0-6.4,2.9-6.4,6.4v18.5
					C216,154.2,218.8,157,222.4,157z"/>
				<path class="st3" d="M218.2,127.3l17.1,14.5c2.8,2.1,6.6,2.1,9.5,0.1l17.9-14.6"/>
			</g>
			<circle class="st2" cx="262.9" cy="126.2" r="5"/>
		</g>
		<g>
			<g>
				<path class="st1" d="M377.8,123.9h48.7c4.8,0,8.7-3.9,8.7-8.7V90.1c0-4.8-3.9-8.7-8.7-8.7h-48.7c-4.8,0-8.7,3.9-8.7,8.7v25.1
					C369.1,120,373,123.9,377.8,123.9z"/>
				<path class="st3" d="M372.1,83.6l23.1,19.6c3.8,2.8,9,2.8,12.8,0.1l24.2-19.7"/>
			</g>
			<path class="st2" d="M439.4,82.2c0,3.7-3,6.8-6.8,6.8c-3.7,0-6.8-3-6.8-6.8c0-3.7,3-6.8,6.8-6.8
				C436.4,75.4,439.4,78.4,439.4,82.2z"/>
		</g>
		<g>
			<g>
				<path class="st1" d="M284.4,92H311c2.6,0,4.7-2.1,4.7-4.7V73.5c0-2.6-2.1-4.7-4.7-4.7h-26.7c-2.6,0-4.7,2.1-4.7,4.7v13.7
					C279.7,89.9,281.8,92,284.4,92z"/>
				<path class="st3" d="M281.3,70l12.6,10.7c2.1,1.5,4.9,1.5,7,0.1L314.1,70"/>
			</g>
			
				<ellipse transform="matrix(0.3849 -0.923 0.923 0.3849 129.5538 332.7354)" class="st2" cx="314.4" cy="69.2" rx="3.7" ry="3.7"/>
		</g>
		<g>
			<g>
				<path class="st1" d="M200.1,69.4h21.4c2.1,0,3.8-1.7,3.8-3.8v-11c0-2.1-1.7-3.8-3.8-3.8h-21.4c-2.1,0-3.8,1.7-3.8,3.8v11
					C196.3,67.7,198,69.4,200.1,69.4z"/>
				<path class="st3" d="M197.6,51.7l10.2,8.6c1.7,1.2,3.9,1.2,5.6,0.1l10.6-8.7"/>
			</g>
		</g>
		<g>
			<g>
				<path class="st1" d="M174.2,226.6h32.9c3.3,0,5.9-2.6,5.9-5.9v-17.3c0-3.3-2.6-5.9-5.9-5.9h-32.9c-3.3,0-5.9,2.6-5.9,5.9v17.3
					C168.3,224,171,226.6,174.2,226.6z"/>
				<path class="st3" d="M170.3,199l15.6,13.4c2.6,1.9,6.1,1.9,8.7,0.1l16.4-13.6"/>
			</g>
			<path class="st2" d="M215.9,198c0,2.6-2,4.6-4.6,4.6c-2.5,0-4.6-2.1-4.6-4.6c0-2.6,2-4.6,4.6-4.6
				C213.8,193.3,215.9,195.4,215.9,198z"/>
		</g>
		<g>
			<path class="st0" d="M216.5,293.5c0.1-0.3,6.5-15,6.5-15s-15.8,1.4-16.1,2.8C205.8,285.5,216.5,293.5,216.5,293.5z"/>
			<path class="st5" d="M419.3,443.6c-28.8,9.9-104.7,34.5-104.7,34.5l0,0c-11.6-14.8-18-32.9-18.3-51.7l0-1.2l-8.9,35.1
				c-1.4,7.1-97.4-21.5-114.6-45.5c-3.4-4.7-13.1-35.6,13.6-50.3c21.1-11.6,44.5,0,67-3.1c0,0,71.6,6.5,120.4,10.5
				c6.4,0.5,67.2-22.6,80.1,20.9C462.3,421.1,436.1,437.8,419.3,443.6z"/>
			<path class="st6" d="M445.5,427.3c3.6-6.6,5.1-14.5,2.9-24c-10-44.3-72.2-25.3-78.5-26.2c-26.1-3.9-58.7-8.9-83.3-12.7
				c25.1,2.2,59.8,5.3,87.2,7.5c6.4,0.5,67.2-22.6,80.1,20.9C458.2,407.3,453.4,418.8,445.5,427.3z"/>
			<path class="st6" d="M369.8,389.2c-11.4,1.6-35,5.8-58,25.1c-11.1,8.2-15,9.4-15,9.4s0.1,7.6,0,8.7c-0.1,1.2,25-10.3,29-16.7
				c4-6.4,28.5-20.2,35.1-19.9C367.5,396.1,373.5,388.7,369.8,389.2z"/>
			<path class="st3" d="M419.3,443.6c-28.8,9.9-104.7,34.5-104.7,34.5l0,0c-11.6-14.8-18-32.9-18.3-51.7l0-1.2l-8.9,35.1
				c-1.4,7.1-97.4-21.5-114.6-45.5c-3.4-4.7-13.1-35.6,13.6-50.3c21.1-11.6,44.5,0,67-3.1c0,0,71.6,6.5,120.4,10.5
				c6.4,0.5,67.2-22.6,80.1,20.9C462.3,421.1,436.1,437.8,419.3,443.6z"/>
			<path class="st7" d="M434.9,302.6c0.4,2.9-19.7,5.7-19.7,5.7s-3.9,0.6-3.9,0.7c-0.2,2.7-3.6,42.7-8.2,44.5
				c-26.6,10.5-54.7,25.2-72.4,26.9c-36.6,3.6-57.9-7.2-68.6-15.5c-1.5-1.2-3-2.5-4.4-3.9c-0.5-0.5-4-3.7-4.3-4.3
				c-0.5-0.8,1.3-1.3,1.5-2.3c0.8-3.9,2.9-5.6,3.6-9.5c0.7-3.7,1.1-7.6,2.2-11.2c0-0.1,0.1-0.2,0.1-0.3c4.3-12.9,2.6-45.5,2.6-45.5
				l-19.3,0.1c-5.7-0.1-18.9-5.9-18.9-5.9c-3.5-1.9-1.3-2.2-6-1.8c-1.9,0.2-10.1-0.2-12.1,0c0,0,0.8-8.4,5.2-16.5
				c3.9-7.1,8-13.6,8.4-17.7c1-11.8,13.7-25.3,23.3-31c6.6-4,12.9-6.2,17.3-7.1c5.1-1.1,43.5-10.8,43.5-10.8s16.5-4.5,25.6-2.3
				c20.2,4.9,49.1,20.9,62.3,23.1c34.6,5.9,35.7,47.8,36.7,52.2C430.1,274,434.1,297.4,434.9,302.6z"/>
			<path class="st6" d="M434.9,302.6c0.2,1.2-3.9,2.5-8.6,3.6c-1.5-9-3.8-22.3-4.4-24.9c-1-4.5-2.1-46.3-36.7-52.2
				c-13.1-2.2-36.7-24.7-56.9-29.5c-9.1-2.2-38.1,1.5-38.1,1.5s-31.2,16.9-36.3,18c-4.4,1-10.7,3.2-17.3,7.1
				c-4.2,2.5-9,6.5-13.2,11.3c4.4-9.1,13.4-17.9,20.6-22.2c6.6-4,12.9-6.2,17.3-7.1c5.1-1.1,43.5-10.8,43.5-10.8s16.5-4.5,25.6-2.3
				c20.2,4.9,49.1,20.9,62.3,23.1c34.6,6,35.7,47.8,36.7,52.2C430.1,274,434.1,297.4,434.9,302.6z"/>
			<path class="st3" d="M434.9,302.6c0.4,2.9-23.6,6.3-23.6,6.3s0,0.1,0,0.1c-0.2,2.7-3.6,42.7-8.2,44.5
				c-26.6,10.5-54.7,25.2-72.4,26.9c-36.6,3.6-57.9-7.2-68.6-15.5c-2.8-2.2-4.9-4.3-6.4-5.8c-1.7-1.9-2.5-3-2.5-3s6.6-19,7.5-22.1
				c0,0,0,0,0,0c0-0.1,0.1-0.2,0.1-0.3c4.3-12.9,2.6-45.5,2.6-45.5l-19.3,0.1c-5.7-0.1-18.9-5.9-18.9-5.9s0.7-2.2-3.9-1.8
				c-1.9,0.2-12.4,0.2-14.4,0.4c0,0,1.1-8.9,5.5-16.9c3.9-7.1,8-13.6,8.4-17.7c1-11.8,13.7-25.3,23.3-31c6.6-4,12.9-6.2,17.3-7.1
				c5.1-1.1,43.5-10.8,43.5-10.8s16.5-4.5,25.6-2.3c20.2,4.9,49.1,20.9,62.3,23.1c34.6,5.9,35.7,47.8,36.7,52.2
				C430.1,274,434.1,297.4,434.9,302.6z"/>
			<path class="st3" d="M256,289.2c0-5.9-1.7-13.1-4.4-13.1"/>
			<path class="st3" d="M259.6,274.1c-1.3,1.9-3.1,17.4-3.6,15.1"/>
			<path class="st3" d="M369.1,221.7c6.1-3.8,19.2-5,26.1-2.8"/>
			<line class="st3" x1="220.8" y1="256.9" x2="220.8" y2="245.7"/>
			<line class="st3" x1="259.9" y1="249.2" x2="259.9" y2="256.7"/>
			<path class="st0" d="M335.6,139.1c-2.1,0-3.1,2.8-1.3,4c4.2,3,10.8,8.2,12.7,12.9c2.9,7.1,7.3,6.4,7.7,2.3
				c0.4-4.1-7.2-15-13.8-18C338.8,139.5,337.1,139.1,335.6,139.1z"/>
			<path class="st0" d="M350.9,171.3c0.8,1.1,2.3,1.3,3.3,0.4c1-0.8,1.1-2.4,0.3-3.5c-0.8-1.1-2.3-1.3-3.3-0.4
				C350.2,168.6,350.1,170.2,350.9,171.3z"/>
			<path class="st0" d="M301,214.6c0.6,5.3,5.9,7.3,12.5,5.2c0.8-0.3,1.6-0.6,2.4-0.9c0.2-0.1,0.5-0.2,0.8-0.4
				c0.6-0.3,1.2-0.6,1.7-0.9c7-4.2,12-11.6,11.3-17.3c-0.4-3.4-2.7-5.4-6-5.9c-0.2,0-0.3,0-0.5,0c-0.2,0-0.5,0-0.7-0.1
				c-2.5-0.1-5.4,0.6-8.4,2.1C306.1,200.3,300.3,208.5,301,214.6z"/>
			<path class="st8" d="M333.8,179c0.1,1.1,0.1,2.2,0,3.3c0,0.5-0.1,0.9-0.1,1.4c-0.2,1.5-0.4,3-0.7,4.5c-3,11.9-12.8,20.2-24,19.3
				c-13-1-22.9-14-22.1-28.9c0.3-5.7,2.1-10.9,5-15.1c0.2-0.2,0.3-0.5,0.5-0.7c0.1-0.2,0.2-0.4,0.4-0.5c0.2-0.3,0.4-0.6,0.6-0.8
				c1.7-2.1,3.8-3.8,6-5.1c0.3-0.2,0.6-0.4,1-0.5c0.3-0.2,0.7-0.3,1-0.5c0.3-0.1,0.7-0.3,1-0.4c2.3-0.9,4.7-1.5,7.3-1.5
				c0.7,0,1.4,0,2.1,0.1C323.7,154.3,333.1,165.5,333.8,179z"/>
			<path class="st3" d="M308.9,207.4c10.6,0.9,20-6.5,23.5-17.4c0.2-0.6,0.4-1.2,0.5-1.8c0.4-1.5,0.6-2.9,0.7-4.5
				c0-0.5,0.1-0.9,0.1-1.4c0.1-1.1,0-2.2,0-3.3c-0.5-10.3-6.1-19.2-14.1-23.3c-0.4-0.2-0.8-0.4-1.2-0.6c-0.6-0.3-1.3-0.5-1.9-0.7
				c-0.6-0.2-1.2-0.4-1.9-0.5c-0.3-0.1-0.7-0.1-1-0.2c-0.3-0.1-0.7-0.1-1-0.2c-0.3-0.1-0.7-0.1-1-0.1c-0.7-0.1-1.4-0.1-2.1-0.1
				c-2.5,0.1-5,0.6-7.3,1.5c-0.4,0.1-0.7,0.3-1,0.4c-0.3,0.2-0.7,0.3-1,0.5c-0.3,0.2-0.7,0.3-1,0.6c-2.2,1.3-4.3,3-6,5.1
				c-0.2,0.3-0.5,0.5-0.6,0.8c-0.2,0.2-0.3,0.3-0.4,0.5c-0.2,0.2-0.3,0.5-0.5,0.7c-2.9,4.2-4.7,9.3-5,15.1
				C286,193.4,295.9,206.4,308.9,207.4z"/>
			<path class="st3" d="M290.2,201c-5.6,8.8,5.4,30.3,5.4,30.3s1.4-6.4,5.4-19.2"/>
			<path class="st0" d="M287.9,160.6c-2-3.1-1.1-7.2,2-9.1c3.1-2,7.2-1.1,9.2,2c0.5,0.8,0.8,1.6,0.9,2.4c0.1,0,0.2-0.1,0.2-0.1
				c0.3-0.2,0.7-0.3,1-0.5c0.3-0.1,0.7-0.3,1-0.4c2.3-0.9,4.7-1.5,7.3-1.5c0.7,0,1.4,0,2.1,0.1c0.3,0,0.7,0.1,1,0.1
				c0.3,0.1,0.7,0.1,1,0.2c0.3,0.1,0.7,0.1,1,0.2c0.6,0.1,1.3,0.3,1.9,0.5c0.7,0.2,1.3,0.5,1.9,0.7c0.3,0.1,0.5,0.3,0.8,0.4
				c0.1,0.1,0.3,0.1,0.4,0.2c7.9,4.1,13.5,13,14.1,23.3c0.1,1.1,0.1,2.2,0,3.3c0,0.5-0.1,0.9-0.1,1.4c-0.2,1.5-0.4,3-0.7,4.5
				c-0.2,0.6-0.3,1.2-0.5,1.8c-5.4-7.2-11-12.3-15-12.3c-14,0.1-25.4-10.3-25.3-14.2C290.4,163.1,288.9,162.1,287.9,160.6z"/>
			<path class="st9" d="M330.9,193.7l-17.4,25.8l10.9,15.3c0,0,14.9-20.4,18.6-34.2C343.7,198,330.9,193.7,330.9,193.7z"/>
			<path class="st6" d="M343,200.5c-2.2,8.2-8.4,18.7-13,25.9c4.1-6.8,8.7-15.2,10.5-21.9c0.7-2.6-12.1-6.8-12.1-6.8l-14.8,22
				l-0.1-0.1l17.4-25.8C330.9,193.7,343.7,198,343,200.5z"/>
			<path class="st3" d="M330.9,193.7l-17.4,25.8l10.9,15.3c0,0,14.9-20.4,18.6-34.2C343.7,198,330.9,193.7,330.9,193.7z"/>
			<path class="st10" d="M423,307L423,307c-15.4,4.1-31.6,3.5-46.6-1.7l-9.6-3.3L343.1,285l-4.4-7.9c-5.2-8.4-10.9-4.2-16.2-5.8
				c-1.8-0.5-3.7-1.3-5.6-1.9c-1.8-0.6-3.7-0.6-5.5-0.2l-4.6,1.1l-2.8-1.7c-1.4-0.8-3-1.2-4.6-1.1c-5.4,0.5-10.6,2.4-15.4,4.7
				c-5.7,2.7-11.6,6.4-10.7,9.6c1.7,5.9,24.6,0.5,24.6,0.5l0.6,9.5c0,0-9.2-5.9-11.1-3.7c-4.7,5.4,12.6,25.7,12.6,25.7l72.8,61.3
				l0,0c17.2,10.5,39.6,0.1,42.7-19.8L423,307z"/>
			<path class="st6" d="M423,307l-7.6,48.3c-2.3,14.5-14.8,23.9-28,23.9c-1,0-2,0-3-0.2c11.8-1.6,22.1-10.6,24.1-23.7l7.3-46.8
				C418.3,308.1,420.6,307.6,423,307z"/>
			<path class="st6" d="M334.1,272.6c3.7,3.2,9,12.4,9,12.4s18.4,13.8,23.7,16.9c5.3,3.1,27.3,16.7,27.3,16.7s-4,5.4-7.3,3.6
				c-3.3-1.8-28.2-20.7-32.5-22.9c-4.3-2.2-15.6-6.4-16.6-9.8c-1-3.4-2.8-14.5-6.9-15.2C326.7,273.6,334.1,272.6,334.1,272.6z"/>
			<path class="st3" d="M423,307L423,307c-13.9,2.6-27.7,2.6-46.6-1.7l-9.6-3.3L343.1,285l-4.4-7.9c-5.2-8.4-10.9-4.2-16.2-5.8
				c-1.8-0.5-3.7-1.3-5.6-1.9c-1.8-0.6-3.7-0.6-5.5-0.2l-4.6,1.1l-2.8-1.7c-1.4-0.8-3-1.2-4.6-1.1c-5.4,0.5-10.6,2.4-15.4,4.7
				c-5.7,2.7-11.6,6.4-10.7,9.6c1.7,5.9,24.6,0.5,24.6,0.5l0.6,9.5c0,0-9.2-5.9-11.1-3.7c-4.7,5.4,12.6,25.7,12.6,25.7l72.8,61.3
				l0,0c17.2,10.5,39.6,0.1,42.7-19.8L423,307z"/>
			<path class="st3" d="M309,415.8c-4.6-3.2-9.1-5.7-12.2-9.9c-16.8-16.8-41.9-23-65.3-19"/>
			<path class="st8" d="M243.3,481l37.1-5.1l27.7-6.6c-10.7-19.4-11.7-40.9-11.8-43.9L262,436.8c0,0-20.7,0.8-33.8,5
				c0,0-26.4,21.1-26.4,25.2S243.3,481,243.3,481z"/>
			<path class="st8" d="M381.9,456.7l-43.2,13.6l32.2,6.8c0,0,19.4,3.9,22.2,3.9C395.8,481,381.9,456.7,381.9,456.7z"/>
			<path class="st0" d="M242.1,254l5.5,50c0.3,2.5,2.3,4.3,4.8,4.3h31.9c2.9,0,5.1-2.5,4.8-5.4l-5.5-50c-0.3-2.5-2.3-4.3-4.8-4.3
				H247C244.1,248.6,241.8,251.1,242.1,254z"/>
			<line class="st3" x1="394.1" y1="318.6" x2="365" y2="300.6"/>
			<path class="st3" d="M364.1,278.7c0.7,4.6,2,16,0.3,20.4"/>
			<path class="st3" d="M311.1,292.1c-11.9,20.2-13.3-8.7-11.8-13.8c1.2-4.1,6-7.7,7.1-7.7"/>
			<path class="st3" d="M325.8,283.8c-3.7,10.6-2,14.8-4.4,17c-4.5,4.1-8.7,0.6-9.2-2.4c-0.8-5.9-2.5-10.9-0.7-16.8
				c1.8-5.8,6.5-7.7,9.4-7.7"/>
			<path class="st3" d="M320.6,301.2c0-6.8-4.4-12.2-9.8-12.2"/>
			<path class="st10" d="M278,278.4c3.7-12.2-7.4-11.3-7.1-12.3c3.2-8.7-5.1-17.6-12.6-5.5c-3.2,5.2-9.7,17.3-11.6,19.6l-1.3-0.8
				l-2.6-13.3c0,0-5.9,8.2-9.9,14.5l-11.8-0.1c0,0-15.4,26.4-17.5,58.4c-0.9,13.2,11,29.2,23,30.1c5.6,0.4,23.6-3.9,27.2-13.6
				l13.1-26.2c7.3-15.4,13.7-30.4,14.8-34.9C285.8,277.1,277.8,279.1,278,278.4z"/>
			<path class="st3" d="M278,278.4c3.7-12.2-7.4-11.3-7.1-12.3c3.2-8.7-5.1-17.6-12.6-5.5c-3.2,5.2-9.7,17.3-11.6,19.6l-1.3-0.8
				l-2.6-13.3c0,0-5.9,8.2-9.9,14.5l-11.8-0.1c0,0-15.4,26.4-17.5,58.4c-0.9,13.2,11,29.2,23,30.1c5.6,0.4,23.6-3.9,27.2-13.6
				l13.1-26.2c7.3-15.4,13.7-30.4,14.8-34.9C285.8,277.1,277.8,279.1,278,278.4z"/>
			<path class="st3" d="M271.4,264.5c-1.1,4.7-6.8,18.4-10.5,23.1"/>
			<path class="st3" d="M278.5,275.6c-1.2,4.9-5.6,14.1-8.4,18.3"/>
			<path class="st3" d="M233,280.6c0,0-3.4,5.9-5.8,13c-2.4,7.1-1.6,10.7-5,19.1c-3.4,8.4-5.8,12.3-5.8,12.3"/>
			<path class="st3" d="M267,274.3c-3.9-4.4-0.8-16.8,0.5-16.8"/>
			<path class="st3" d="M279.8,297.6c-3.9-7.9,0.1-17,0-17"/>
			<path class="st3" d="M238.1,378.7c0.4,5,9.1,5.5,13.4,7.1"/>
			<path class="st3" d="M296.8,423.7c15.4-2.6,18.7-26.3,74.5-34.5"/>
			<path class="st3" d="M365.8,386.3c-5.1,4.1-4.3,2.2-9.8,5.7"/>
		</g>
	</g>
</g>
</svg>
