<?xml version="1.0" encoding="utf-8"?>
<!-- Generator: Adobe Illustrator 23.1.0, SVG Export Plug-In . SVG Version: 6.00 Build 0)  -->
<svg version="1.1" id="Layer_1" xmlns="http://www.w3.org/2000/svg" xmlns:xlink="http://www.w3.org/1999/xlink" x="0px" y="0px"
	 viewBox="0 0 500 500" style="enable-background:new 0 0 500 500;" xml:space="preserve">
<style type="text/css">
	.st0{fill:#FFFFFF;stroke:#1A2E35;stroke-width:2.5;stroke-linecap:round;stroke-linejoin:round;stroke-miterlimit:10;}
	.st1{fill:#FF644C;}
	.st2{fill:none;stroke:#1A2E35;stroke-width:2.5;stroke-linecap:round;stroke-linejoin:round;stroke-miterlimit:10;}
	.st3{fill:none;stroke:#FF644C;stroke-width:2.5;stroke-linecap:round;stroke-linejoin:round;stroke-miterlimit:10;}
	.st4{fill:none;stroke:#40A2E3;stroke-width:2.5;stroke-linecap:round;stroke-linejoin:round;stroke-miterlimit:10;}
	.st5{fill:#40A2E3;}
	.st6{fill:#FFFFFF;}
	.st7{fill:#FFFFFF;stroke:#FF644C;stroke-width:2.5;stroke-linecap:round;stroke-linejoin:round;stroke-miterlimit:10;}
	.st8{fill:#40A2E3;stroke:#1A2E35;stroke-width:2.5;stroke-linecap:round;stroke-linejoin:round;stroke-miterlimit:10;}
	.st9{fill:#FF644C;stroke:#1A2E35;stroke-width:2.5;stroke-linecap:round;stroke-linejoin:round;stroke-miterlimit:10;}
	.st10{fill:#FFD8C2;}
	.st11{fill:#1A2E35;stroke:#1A2E35;stroke-width:2.5;stroke-linecap:round;stroke-linejoin:round;stroke-miterlimit:10;}
	.st12{fill:#FFD8C2;stroke:#1A2E35;stroke-width:2.5;stroke-linecap:round;stroke-linejoin:round;stroke-miterlimit:10;}
	.st13{fill:#1A2E35;}
</style>
<g>
	<g>
		<g>
			<g>
				<path class="st0" d="M371.9,227.7l13.8,0.2v6.9c0,3.5,2.9,6.4,6.4,6.4h64.1c3.5,0,6.4-2.9,6.4-6.4v-40.4c0-3.5-2.9-6.4-6.4-6.4
					h-64.1c-3.5,0-6.4,2.9-6.4,6.4V205l-15.2,20.2C369.7,226.3,370.6,227.8,371.9,227.7z"/>
			</g>
		</g>
		<g>
			<path class="st1" d="M414.8,209.6L414.8,209.6c0,0.7-0.4,1.3-1.1,1.6l-4.1,1.6c-1.4,0.6-1.4,2.6,0,3.2l4.1,1.6
				c0.7,0.3,1.1,0.9,1.1,1.6l0,0c0,1.2-1.2,2-2.3,1.6l-10.8-4.4c-0.6-0.3-1.1-0.9-1.1-1.6V214c0-0.7,0.4-1.3,1.1-1.6l10.8-4.4
				C413.6,207.6,414.8,208.4,414.8,209.6z"/>
			<path class="st1" d="M419.6,228.3L419.6,228.3c-1.3,0-2.2-1.3-1.7-2.5L427,204c0.3-0.7,0.9-1.1,1.7-1.1l0,0
				c1.3,0,2.2,1.3,1.7,2.5l-9.1,21.8C421,227.9,420.3,228.3,419.6,228.3z"/>
			<path class="st1" d="M438.7,212.8l-4.1-1.6c-0.7-0.3-1.1-0.9-1.1-1.6v0c0-1.2,1.2-2,2.3-1.6l10.8,4.4c0.6,0.3,1.1,0.9,1.1,1.6
				v0.8c0,0.7-0.4,1.3-1.1,1.6l-10.8,4.4c-1.1,0.5-2.3-0.4-2.3-1.6l0,0c0-0.7,0.4-1.3,1.1-1.6l4.1-1.6
				C440.1,215.4,440.1,213.4,438.7,212.8z"/>
		</g>
	</g>
	<g>
		<g>
			<path class="st0" d="M322.1,118.8c0-3.3-2.7-6-6-6h-229c-3.3,0-6,2.7-6,6v8.1h240.9V118.8z"/>
			<path class="st0" d="M81.2,126.9v138.8c0,3.3,2.7,6,6,6h229c3.3,0,6-2.7,6-6V126.9H81.2z"/>
		</g>
		<g>
			<circle class="st2" cx="99" cy="119.8" r="1"/>
			<circle class="st2" cx="108.5" cy="119.8" r="1"/>
			<circle class="st2" cx="118" cy="119.8" r="1"/>
		</g>
		<line class="st2" x1="145.3" y1="138.6" x2="145.3" y2="257.8"/>
		<g>
			<line class="st2" x1="91.4" y1="140.9" x2="97.9" y2="140.9"/>
			<line class="st2" x1="104" y1="140.9" x2="119" y2="140.9"/>
			<line class="st2" x1="123.3" y1="140.9" x2="134.5" y2="140.9"/>
			<line class="st2" x1="104" y1="149" x2="111.5" y2="149"/>
			<line class="st2" x1="115.5" y1="149" x2="134.5" y2="149"/>
			<line class="st2" x1="104" y1="157" x2="119" y2="157"/>
			<line class="st2" x1="123.3" y1="157" x2="134.5" y2="157"/>
		</g>
		<g>
			<line class="st2" x1="160.5" y1="140.9" x2="167" y2="140.9"/>
			<line class="st3" x1="173.1" y1="140.9" x2="188.1" y2="140.9"/>
			<line class="st2" x1="192.4" y1="140.9" x2="203.6" y2="140.9"/>
			<line class="st4" x1="173.1" y1="149" x2="180.6" y2="149"/>
			<line class="st2" x1="184.6" y1="149" x2="203.6" y2="149"/>
			<line class="st3" x1="173.1" y1="157" x2="188.1" y2="157"/>
			<line class="st2" x1="192.4" y1="157" x2="203.6" y2="157"/>
			<line class="st4" x1="207.3" y1="140.9" x2="222.4" y2="140.9"/>
			<line class="st2" x1="226.7" y1="140.9" x2="237.8" y2="140.9"/>
			<line class="st2" x1="241.7" y1="157" x2="252.9" y2="157"/>
			<line class="st4" x1="256.6" y1="157" x2="271.6" y2="157"/>
			<line class="st2" x1="275.9" y1="157" x2="287.1" y2="157"/>
			<line class="st3" x1="207.3" y1="149" x2="214.8" y2="149"/>
			<line class="st4" x1="218.9" y1="149" x2="237.8" y2="149"/>
			<line class="st2" x1="241.1" y1="149" x2="260.1" y2="149"/>
			<line class="st3" x1="263.8" y1="149" x2="271.3" y2="149"/>
			<line class="st4" x1="275.3" y1="149" x2="294.3" y2="149"/>
			<line class="st2" x1="207.3" y1="157" x2="222.4" y2="157"/>
			<line class="st3" x1="226.7" y1="157" x2="237.8" y2="157"/>
		</g>
		<g>
			<line class="st2" x1="160.5" y1="166.8" x2="167" y2="166.8"/>
			<line class="st2" x1="173.1" y1="166.8" x2="188.1" y2="166.8"/>
			<line class="st3" x1="192.4" y1="166.8" x2="203.6" y2="166.8"/>
			<line class="st2" x1="173.1" y1="174.8" x2="180.6" y2="174.8"/>
			<line class="st4" x1="184.6" y1="174.8" x2="203.6" y2="174.8"/>
			<line class="st3" x1="173.1" y1="182.9" x2="188.1" y2="182.9"/>
			<line class="st2" x1="192.4" y1="182.9" x2="203.6" y2="182.9"/>
			<line class="st2" x1="207.3" y1="166.8" x2="222.4" y2="166.8"/>
			<line class="st4" x1="226.7" y1="166.8" x2="237.8" y2="166.8"/>
			<line class="st3" x1="207.3" y1="174.8" x2="214.8" y2="174.8"/>
			<line class="st2" x1="218.9" y1="174.8" x2="237.8" y2="174.8"/>
			<line class="st4" x1="241" y1="182.9" x2="260" y2="182.9"/>
			<line class="st3" x1="263.6" y1="182.9" x2="271.2" y2="182.9"/>
			<line class="st2" x1="275.2" y1="182.9" x2="294.2" y2="182.9"/>
			<line class="st4" x1="207.3" y1="182.9" x2="222.4" y2="182.9"/>
			<line class="st3" x1="226.7" y1="182.9" x2="237.8" y2="182.9"/>
		</g>
		<g>
			<line class="st2" x1="160.5" y1="192.7" x2="167" y2="192.7"/>
			<line class="st4" x1="173.1" y1="192.7" x2="188.1" y2="192.7"/>
			<line class="st2" x1="192.4" y1="192.7" x2="203.6" y2="192.7"/>
			<line class="st2" x1="173.1" y1="200.7" x2="180.6" y2="200.7"/>
			<line class="st3" x1="184.6" y1="200.7" x2="203.6" y2="200.7"/>
			<line class="st3" x1="173.1" y1="208.8" x2="188.1" y2="208.8"/>
			<line class="st4" x1="192.4" y1="208.8" x2="203.6" y2="208.8"/>
			<line class="st3" x1="207.3" y1="192.7" x2="222.4" y2="192.7"/>
			<line class="st2" x1="226.7" y1="192.7" x2="237.8" y2="192.7"/>
			<line class="st2" x1="241.7" y1="200.7" x2="252.9" y2="200.7"/>
			<line class="st3" x1="240.7" y1="208.7" x2="255.8" y2="208.7"/>
			<line class="st2" x1="260.1" y1="208.7" x2="271.3" y2="208.7"/>
			<line class="st2" x1="207.3" y1="200.7" x2="214.8" y2="200.7"/>
			<line class="st4" x1="218.9" y1="200.7" x2="237.8" y2="200.7"/>
			<line class="st3" x1="207.3" y1="208.8" x2="222.4" y2="208.8"/>
			<line class="st2" x1="226.7" y1="208.8" x2="237.8" y2="208.8"/>
		</g>
		<g>
			<line class="st2" x1="160.5" y1="218.5" x2="167" y2="218.5"/>
			<line class="st4" x1="173.1" y1="218.5" x2="188.1" y2="218.5"/>
			<line class="st3" x1="192.4" y1="218.5" x2="203.6" y2="218.5"/>
			<line class="st2" x1="173.1" y1="226.6" x2="180.6" y2="226.6"/>
			<line class="st3" x1="241.1" y1="226.6" x2="260.1" y2="226.6"/>
			<line class="st3" x1="185" y1="226.6" x2="204" y2="226.6"/>
			<line class="st3" x1="173.1" y1="234.6" x2="188.1" y2="234.6"/>
			<line class="st2" x1="192.4" y1="234.6" x2="203.6" y2="234.6"/>
			<line class="st2" x1="207.3" y1="218.5" x2="222.4" y2="218.5"/>
			<line class="st2" x1="226.7" y1="218.5" x2="237.8" y2="218.5"/>
			<line class="st2" x1="207.3" y1="226.6" x2="214.8" y2="226.6"/>
			<line class="st4" x1="218.9" y1="226.6" x2="237.8" y2="226.6"/>
			<line class="st2" x1="207.3" y1="234.6" x2="222.4" y2="234.6"/>
			<line class="st3" x1="226.7" y1="234.6" x2="237.8" y2="234.6"/>
			<line class="st2" x1="242.5" y1="234.6" x2="257.6" y2="234.6"/>
			<line class="st3" x1="261.8" y1="234.6" x2="273" y2="234.6"/>
		</g>
		<g>
			<line class="st2" x1="160.5" y1="244.4" x2="167" y2="244.4"/>
			<line class="st2" x1="173.1" y1="244.4" x2="188.1" y2="244.4"/>
			<line class="st3" x1="192.4" y1="244.4" x2="203.6" y2="244.4"/>
			<line class="st2" x1="173.1" y1="252.4" x2="180.6" y2="252.4"/>
			<line class="st2" x1="184.6" y1="252.4" x2="203.6" y2="252.4"/>
			<line class="st3" x1="173.1" y1="260.5" x2="188.1" y2="260.5"/>
			<line class="st2" x1="192.4" y1="260.5" x2="203.6" y2="260.5"/>
			<line class="st2" x1="207.3" y1="244.4" x2="222.4" y2="244.4"/>
			<line class="st2" x1="226.7" y1="244.4" x2="237.8" y2="244.4"/>
			<line class="st3" x1="207.3" y1="252.4" x2="214.8" y2="252.4"/>
			<line class="st2" x1="218.9" y1="252.4" x2="237.8" y2="252.4"/>
			<line class="st2" x1="207.3" y1="260.5" x2="222.4" y2="260.5"/>
			<line class="st3" x1="226.7" y1="260.5" x2="237.8" y2="260.5"/>
		</g>
		<g>
			<line class="st2" x1="91.4" y1="166.8" x2="97.9" y2="166.8"/>
			<line class="st2" x1="104" y1="166.8" x2="119" y2="166.8"/>
			<line class="st2" x1="123.3" y1="166.8" x2="134.5" y2="166.8"/>
			<line class="st2" x1="104" y1="174.8" x2="111.5" y2="174.8"/>
			<line class="st2" x1="115.5" y1="174.8" x2="134.5" y2="174.8"/>
			<line class="st2" x1="104" y1="182.9" x2="119" y2="182.9"/>
			<line class="st2" x1="123.3" y1="182.9" x2="134.5" y2="182.9"/>
		</g>
		<g>
			<line class="st2" x1="91.4" y1="192.7" x2="97.9" y2="192.7"/>
			<line class="st2" x1="104" y1="192.7" x2="119" y2="192.7"/>
			<line class="st2" x1="123.3" y1="192.7" x2="134.5" y2="192.7"/>
			<line class="st2" x1="104" y1="200.7" x2="111.5" y2="200.7"/>
			<line class="st2" x1="115.5" y1="200.7" x2="134.5" y2="200.7"/>
			<line class="st2" x1="104" y1="208.8" x2="119" y2="208.8"/>
			<line class="st2" x1="123.3" y1="208.8" x2="134.5" y2="208.8"/>
		</g>
		<g>
			<line class="st2" x1="91.4" y1="218.5" x2="97.9" y2="218.5"/>
			<line class="st2" x1="104" y1="218.5" x2="119" y2="218.5"/>
			<line class="st2" x1="123.3" y1="218.5" x2="134.5" y2="218.5"/>
			<line class="st2" x1="104" y1="226.6" x2="111.5" y2="226.6"/>
			<line class="st2" x1="115.5" y1="226.6" x2="134.5" y2="226.6"/>
			<line class="st2" x1="104" y1="234.6" x2="119" y2="234.6"/>
			<line class="st2" x1="123.3" y1="234.6" x2="134.5" y2="234.6"/>
		</g>
		<g>
			<line class="st2" x1="91.4" y1="244.4" x2="97.9" y2="244.4"/>
			<line class="st2" x1="104" y1="244.4" x2="119" y2="244.4"/>
			<line class="st2" x1="123.3" y1="244.4" x2="134.5" y2="244.4"/>
			<line class="st2" x1="104" y1="252.4" x2="111.5" y2="252.4"/>
			<line class="st2" x1="115.5" y1="252.4" x2="134.5" y2="252.4"/>
			<line class="st2" x1="104" y1="260.5" x2="119" y2="260.5"/>
			<line class="st2" x1="123.3" y1="260.5" x2="134.5" y2="260.5"/>
		</g>
	</g>
	<g>
		<path class="st0" d="M98.1,282.7H37c-4.3,0-7.8-3.5-7.8-7.8v-61.1c0-4.3,3.5-7.8,7.8-7.8h61.1c4.3,0,7.8,3.5,7.8,7.8v61.1
			C105.9,279.2,102.4,282.7,98.1,282.7z"/>
		<path class="st5" d="M105.9,218.9v-5c0-4.3-3.5-7.8-7.8-7.8H37c-4.3,0-7.8,3.5-7.8,7.8v5H105.9z"/>
		<path class="st6" d="M33,214.8c0-3.1,2.5-5.6,5.6-5.6h65.5c0.1,0,0.1,0,0.2,0c-1.4-1.9-3.7-3.1-6.2-3.1H37c-4.3,0-7.8,3.5-7.8,7.8
			v5H33V214.8z"/>
		<path class="st2" d="M105.9,218.9v-5c0-4.3-3.5-7.8-7.8-7.8H37c-4.3,0-7.8,3.5-7.8,7.8v5H105.9z"/>
		<g>
			<path class="st1" d="M58.2,233.4L58.2,233.4c0,0.7-0.4,1.3-1.1,1.6l-4.1,1.6c-1.4,0.6-1.4,2.6,0,3.2l4.1,1.6
				c0.7,0.3,1.1,0.9,1.1,1.6l0,0c0,1.2-1.2,2-2.3,1.6l-10.8-4.4c-0.6-0.3-1.1-0.9-1.1-1.6v-0.8c0-0.7,0.4-1.3,1.1-1.6l10.8-4.4
				C57,231.4,58.2,232.2,58.2,233.4z"/>
			<path class="st1" d="M63,252.1L63,252.1c-1.3,0-2.2-1.3-1.7-2.5l9.1-21.8c0.3-0.7,0.9-1.1,1.7-1.1l0,0c1.3,0,2.2,1.3,1.7,2.5
				l-9.1,21.8C64.4,251.6,63.7,252.1,63,252.1z"/>
			<path class="st1" d="M82.1,236.6L78,235c-0.7-0.3-1.1-0.9-1.1-1.6v0c0-1.2,1.2-2,2.3-1.6l10.8,4.4c0.6,0.3,1.1,0.9,1.1,1.6v0.8
				c0,0.7-0.4,1.3-1.1,1.6l-10.8,4.4c-1.1,0.5-2.3-0.4-2.3-1.6l0,0c0-0.7,0.4-1.3,1.1-1.6l4.1-1.6C83.6,239.2,83.6,237.2,82.1,236.6
				z"/>
		</g>
		<path class="st7" d="M62.5,259.3c10.3,0,20.6,0,30.9,0"/>
		<path class="st7" d="M41.2,259.3c4.3,0,8.5,0,12.8,0"/>
		<path class="st7" d="M81.8,269.5c3.9,0,7.8,0,11.6,0"/>
		<path class="st7" d="M41.2,269.5c10.7,0,21.4,0,32.2,0"/>
	</g>
	<g>
		<g>
			<path class="st0" d="M446.5,135.4H283.1c-4.9,0-8.9-4-8.9-8.9V83.9c0-4.9,4-8.9,8.9-8.9h163.4c4.9,0,8.9,4,8.9,8.9v42.6
				C455.3,131.4,451.4,135.4,446.5,135.4z"/>
			<g>
				<path class="st8" d="M304.6,120.4h-7.3l3.3-8.8h-6l1.9-4.8h6l2.2-5.9h-6.3l1.9-4.8h6.3l3.3-8.7h7.3l-3.3,8.7h6.3l3.3-8.7h7.3
					l-3.3,8.7h6l-1.9,4.8h-6l-2.2,5.9h6.3l-1.9,4.8h-6.3l-3.3,8.8h-7.3l3.3-8.8h-6.3L304.6,120.4z M318.4,100.9H312l-2.2,5.9h6.3
					L318.4,100.9z"/>
			</g>
			<g>
				<path class="st2" d="M423.3,96.4c5,0.1,10.1,0.1,15.1,0.2"/>
				<path class="st2" d="M396.6,96.3c7.2,0,14.4,0,21.6,0.1"/>
				<path class="st2" d="M367.9,96.6c7.7-0.1,15.4-0.2,23.1-0.3"/>
				<path class="st2" d="M349.4,96.6c4.5,0,8.9,0,13.4,0"/>
				<path class="st2" d="M411.8,103.5c8.9,0,17.7,0.1,26.6,0.3"/>
				<path class="st2" d="M381.4,103.9c8.3-0.2,16.5-0.3,24.8-0.3"/>
				<path class="st2" d="M349.4,103.9c8.8-0.4,17.1-0.4,26.8,0"/>
				<path class="st2" d="M428.4,111c3.3,0,6.7,0.1,10,0.2"/>
				<path class="st2" d="M399.8,110.8c7.6,0,15.2,0,22.9,0.1"/>
				<path class="st2" d="M366.2,111.1c9.3-0.2,18.6-0.3,28-0.3"/>
				<path class="st2" d="M349.4,111.1c3.8,0,7.7,0,11.5,0"/>
				<path class="st2" d="M411.8,118.1c8.9,0,17.7,0.1,26.6,0.3"/>
				<path class="st2" d="M374.9,118.4c10.4-0.2,20.8-0.3,31.3-0.3"/>
				<path class="st2" d="M349.4,118.4c6.8,0,13.5,0,20.3,0"/>
			</g>
		</g>
		<path class="st1" d="M464.9,88.9h-15.4c-3.4,0-6.2-2.8-6.2-6.2V67.4c0-3.4,2.8-6.2,6.2-6.2h15.4c3.4,0,6.2,2.8,6.2,6.2v15.4
			C471.1,86.1,468.3,88.9,464.9,88.9z"/>
		<path class="st6" d="M446,86.6V67.7c0-2,1.7-3.7,3.7-3.7h18.9c0.8,0,1.6,0.2,2.3,0.4c-0.8-2.5-3.1-3.3-5.9-3.3h-15.4
			c-3.4,0-6.2,2.8-6.2,6.2v15.4c0,2.6,1.6,4.8,3.9,5.8C447.1,87.9,446,87.3,446,86.6z"/>
		<path class="st2" d="M464.9,88.9h-15.4c-3.4,0-6.2-2.8-6.2-6.2V67.4c0-3.4,2.8-6.2,6.2-6.2h15.4c3.4,0,6.2,2.8,6.2,6.2v15.4
			C471.1,86.1,468.3,88.9,464.9,88.9z"/>
		<g>
			<path class="st6" d="M457.5,80.2c-0.5,0-1-0.2-1.3-0.5l-3.4-3.1c-0.8-0.7-0.9-2-0.1-2.8c0.7-0.8,2-0.9,2.8-0.1l1.8,1.7l3.5-4.2
				c0.7-0.8,2-1,2.8-0.3c0.9,0.7,1,2,0.3,2.8l-4.8,5.8c-0.3,0.4-0.9,0.7-1.4,0.7C457.6,80.2,457.5,80.2,457.5,80.2z"/>
		</g>
	</g>
	<g>
		<path class="st8" d="M111.2,56.2H98.1v-0.5c0-1.9-1.5-3.4-3.4-3.4H84.3c-1.9,0-3.4,1.5-3.4,3.4v0.5v6.7V77c0,1.6,1.3,2.9,2.9,2.9
			h27.3c1.6,0,2.9-1.3,2.9-2.9V59.1C114.1,57.5,112.8,56.2,111.2,56.2z"/>
		<path class="st1" d="M156.2,56.2H143v-0.5c0-1.9-1.5-3.4-3.4-3.4h-10.3c-1.9,0-3.4,1.5-3.4,3.4v0.5v6.7V77c0,1.6,1.3,2.9,2.9,2.9
			h27.3c1.6,0,2.9-1.3,2.9-2.9V59.1C159.1,57.5,157.8,56.2,156.2,56.2z"/>
		<g>
			<path class="st6" d="M156.2,56.2h-14.4v2.1c0,0.8,0.6,1.4,1.4,1.4h15.9v-0.6C159.1,57.5,157.8,56.2,156.2,56.2z"/>
			<path class="st6" d="M129.2,66.4v-6.7V58c0-1.2,1-2.2,2.2-2.2H143v-0.1c0-1.9-1.5-3.4-3.4-3.4h-10.3c-1.9,0-3.4,1.5-3.4,3.4v0.5
				v6.7V77c0,1.6,1.3,2.9,2.9,2.9h0.4V66.4z"/>
		</g>
		<path class="st2" d="M156.2,56.2H143v-0.5c0-1.9-1.5-3.4-3.4-3.4h-10.3c-1.9,0-3.4,1.5-3.4,3.4v0.5v6.7V77c0,1.6,1.3,2.9,2.9,2.9
			h27.3c1.6,0,2.9-1.3,2.9-2.9V59.1C159.1,57.5,157.8,56.2,156.2,56.2z"/>
		<path class="st0" d="M201.1,56.2H188v-0.5c0-1.9-1.5-3.4-3.4-3.4h-10.3c-1.9,0-3.4,1.5-3.4,3.4v0.5v6.7V77c0,1.6,1.3,2.9,2.9,2.9
			h27.3c1.6,0,2.9-1.3,2.9-2.9V59.1C204.1,57.5,202.7,56.2,201.1,56.2z"/>
	</g>
	<polygon class="st0" points="145.7,73.9 142.4,71.9 143.3,75.7 152.6,116.4 161.5,105.4 172,119.8 174.1,118.3 176.6,116.5 
		178.7,114.9 168.3,100.5 181.5,95.5 	"/>
	<g>
		<path class="st9" d="M152.2,304.9v-7.1h-4.5c-0.3-1.3-0.8-2.4-1.5-3.5l3.2-3.2l-5-5l-3.2,3.2c-1.1-0.6-2.3-1.1-3.5-1.5v-4.5h-7.1
			v4.5c-1.3,0.3-2.4,0.8-3.5,1.5l-3.2-3.2l-5,5l3.2,3.2c-0.6,1.1-1.1,2.3-1.5,3.5h-4.5v7.1h4.5c0.3,1.3,0.8,2.4,1.5,3.5l-3.2,3.2
			l5,5l3.2-3.2c1.1,0.6,2.3,1.1,3.5,1.5v4.5h7.1v-4.5c1.3-0.3,2.4-0.8,3.5-1.5l3.2,3.2l5-5l-3.2-3.2c0.6-1.1,1.1-2.3,1.5-3.5H152.2z
			 M134.2,307.8c-3.6,0-6.5-2.9-6.5-6.5c0-3.6,2.9-6.5,6.5-6.5c3.6,0,6.5,2.9,6.5,6.5C140.7,304.9,137.8,307.8,134.2,307.8z"/>
		<path class="st9" d="M184.7,320v-5.4h-3.4c-0.3-1-0.6-1.9-1.1-2.7l2.4-2.4l-3.8-3.8l-2.4,2.4c-0.8-0.5-1.8-0.9-2.7-1.1v-3.4h-5.4
			v3.4c-1,0.3-1.9,0.6-2.7,1.1l-2.4-2.4l-3.8,3.8l2.4,2.4c-0.5,0.8-0.9,1.8-1.1,2.7H157v5.4h3.4c0.3,1,0.6,1.9,1.1,2.7l-2.4,2.4
			l3.8,3.8l2.4-2.4c0.8,0.5,1.8,0.9,2.7,1.1v3.4h5.4v-3.4c1-0.3,1.9-0.6,2.7-1.1l2.4,2.4l3.8-3.8l-2.4-2.4c0.5-0.8,0.9-1.8,1.1-2.7
			H184.7z M170.8,322.2c-2.7,0-5-2.2-5-5c0-2.7,2.2-5,5-5c2.7,0,5,2.2,5,5C175.8,320,173.6,322.2,170.8,322.2z"/>
	</g>
	<g>
		<g>
			<path class="st5" d="M109.9,401.1c-5.2,4-20.2,3.2-20.2,3.2s3.7-13.8,9-17.8c5.2-4,15.1,0,15.1,0S115.1,397.1,109.9,401.1z"/>
		</g>
		<g>
			<path class="st6" d="M113.7,386.5c0,0-9.9-4.1-15.1,0c-1,0.8-2,2-2.9,3.4c0.2-0.2,0.4-0.3,0.5-0.5c5.2-4,15.1,0,15.1,0
				s0.9,6.9-1.5,11.7c0,0,0.1,0,0.1-0.1C115.1,397.1,113.7,386.5,113.7,386.5z"/>
		</g>
		<g>
			<path class="st2" d="M109.9,401.1c-5.2,4-20.2,3.2-20.2,3.2s3.7-13.8,9-17.8c5.2-4,15.1,0,15.1,0S115.1,397.1,109.9,401.1z"/>
		</g>
		<g>
			<path class="st5" d="M69.8,401.1c5.2,4,20.2,3.2,20.2,3.2s-3.7-13.8-9-17.8c-5.2-4-15.1,0-15.1,0S64.6,397.1,69.8,401.1z"/>
		</g>
		<g>
			<path class="st6" d="M67.5,390.3c0,0,9.9-4.1,15.1,0c2.2,1.7,4.2,5.3,5.7,8.7c-1.6-4.3-4.2-10.2-7.3-12.6c-5.2-4-15.1,0-15.1,0
				s-1,7.7,2,12.5C66.9,394.7,67.5,390.3,67.5,390.3z"/>
		</g>
		<g>
			<path class="st2" d="M69.8,401.1c5.2,4,20.2,3.2,20.2,3.2s-3.7-13.8-9-17.8c-5.2-4-15.1,0-15.1,0S64.6,397.1,69.8,401.1z"/>
		</g>
		<g>
			<path class="st5" d="M99.4,387.3c0,6.6-9.8,18-9.8,18s-8.7-11.3-8.7-18c0-6.6,9.2-12,9.2-12S99.3,380.7,99.4,387.3z"/>
		</g>
		<g>
			<path class="st6" d="M90.9,379.5c0,0,6.2,3.6,8.5,8.5c0-0.2,0-0.5,0-0.7c0-6.6-9.3-11.9-9.3-11.9s-9.2,5.4-9.2,12
				c0,1.2,0.3,2.6,0.8,4C81.8,384.8,90.9,379.5,90.9,379.5z"/>
		</g>
		<g>
			<path class="st2" d="M99.4,387.3c0,6.6-9.8,18-9.8,18s-8.7-11.3-8.7-18c0-6.6,9.2-12,9.2-12S99.3,380.7,99.4,387.3z"/>
		</g>
		<g>
			<g>
				<g>
					<polygon class="st1" points="102.6,436 76.3,436 70.6,404.3 108.3,404.3 					"/>
				</g>
				<g>
					<path class="st6" d="M71.1,407.4l-0.6-3.1h37.7l-5.7,31.7H99l2.6-14.5H72.2c-0.1-1.1-0.3-2.1-0.6-3.1h30.5l2-11H71.1z"/>
				</g>
				<g>
					<polygon class="st2" points="102.6,436 76.3,436 70.6,404.3 108.3,404.3 					"/>
				</g>
			</g>
			<g>
				<line class="st2" x1="72.1" y1="410.2" x2="107" y2="410.2"/>
			</g>
		</g>
	</g>
	<g>
		<g>
			<g>
				<g>
					<polygon class="st8" points="422.9,377.4 422.9,377.6 422.8,378.3 422.8,378.5 422.7,378.6 422.5,380.3 420.4,437.8 
						411.1,437.8 392.9,437.8 400.6,433.1 412.4,387.2 413.3,379.9 413.6,377 413.7,376.9 413.7,376.5 413.7,376.1 413.8,376 
						416,376.4 416.6,376.4 422.8,377.3 					"/>
					<g>
						<g>
							<path class="st10" d="M166.7,402.5l8.8-23.5c1.7-4.3,7.8-15.7,8.8-15.5l11.6-18.2c5.6-3.4,43.9-3.6,62.5-3.8
								c0,0,3.3,9.7,6.7,10.2c-0.4,3.8-10.3,22.5-13.8,30c-11.6,24.6-11.6,37.7-25.5,40.5c-1.6,0.3-30.1,1.1-32.9,1.1
								C193.3,421.4,169.8,418.9,166.7,402.5z"/>
							<path class="st2" d="M223.6,379.7c0-2.6-7.7-11.1-21.9-11.1"/>
							<path class="st2" d="M166.7,402.5l8.8-23.5c1.7-4.3,7.8-15.7,8.8-15.5l12.8-20.7c-13.5-5.1,58.3,10.8,55.5,8.1
								c0,0,9.1,0.2,12.5,0.7c-0.4,3.8-10.3,22.5-13.8,30c-11.6,24.6-11.6,37.7-25.5,40.5c-1.6,0.3-30.1,1.1-32.9,1.1
								C193.3,421.4,169.8,418.9,166.7,402.5z"/>
							<path class="st1" d="M414.3,340.6c-0.1,0.5-0.1,0.9-0.1,1.4c-0.3,2.4-0.6,4.6-0.9,6.5c-0.1,0.4-0.1,0.7-0.1,1c0,0,0,0,0,0.1
								c-0.4,2.8-0.5,5.1-0.4,7.4v0c0.4,5.9,0.7,11.8,0.5,17.7l-0.3,7.1c0,18.3-9.5,44.5-9.5,44.8c-0.9,5.7-4.8,8.6-7.6,10
								c0,0,0,0,0,0c-1.6,0.6-2.7,1-3,1.1c0,0,0,0,0,0l-164.1,0l4.6-33.7c0-1.7,0.1-3,0.1-4c0.6-7.5,3.7-17.5,10.6-36.3
								c1.3-3.5-10.4,3.9-23.1-4.8c-0.3-0.2-0.7-0.5-1-0.7c-0.7-0.5-1.4-1.1-2.1-1.7c-17-15.2-29.9,5.7-29.7-10.8c0-1,0.1-2,0.2-3
								c2.1-14.6,18.1-26.5,18.5-30.9c1.5-6.3,4-11.7,7.4-16.2c0.6-0.8,1.3-1.6,2-2.4c0.3-0.4,0.6-0.7,1-1c0,0,0,0,0,0
								c0.4-0.4,0.7-0.7,1.1-1.1c1.1-1.1,2.3-2.1,3.6-3c0.4-0.3,0.9-0.6,1.3-0.9c1.3-0.9,2.7-1.8,4.2-2.5c0.5-0.3,1-0.5,1.5-0.8
								c0.6-0.3,1.2-0.6,1.7-0.8c1-0.5,2.1-0.9,3.1-1.3c0.6-0.2,1.1-0.4,1.7-0.6c1-0.4,2-0.7,3.1-1c0.4-0.1,0.8-0.3,1.3-0.4
								c2.3-0.7,4.7-1.2,7.2-1.7c0.7-0.1,1.4-0.3,2.1-0.4c1.4-0.3,2.9-0.5,4.4-0.7c0.7-0.1,1.3-0.2,2-0.3c0.7-0.1,1.3-0.2,2-0.3
								c1-0.1,1.9-0.2,2.9-0.3c1.7-0.2,3.4-0.3,5.1-0.4c0.9-0.1,1.7-0.1,2.6-0.2c0.9,0,1.8-0.1,2.7-0.1c1.7-0.1,2-0.6,1.8-1.3
								c-0.1-0.3-0.2-0.6-0.4-0.9c0,0,0,0,0,0c0,0,0,0,0,0c-0.5-0.9-1.1-1.9-1.5-3.2c-0.4-1.4-0.4-2.9,0.9-4.5
								c1.2-1.5,15.5-7.8,25.6-9.6c22.4-4.1,45.5-3.3,66.4,5.2c0.7,0.3,1.4,0.6,2,1c2.9,1.7,5.2,4.3,6.4,7.5
								c1.9,4.8,5,11.3,8.1,12.8C400.3,291.8,417.2,315.7,414.3,340.6z"/>
							<path class="st6" d="M347.9,381.9c0,0-3.7,0.6-10.2,2.5c-6.5,1.9-18.7,1.8-31.3,0c-10.4-1.5-13.3,3-13,4.5l-2.1-7.9
								c3.1-1.6,10.9-5,16.6-1.3c7.3,4.7,31.7,0.6,31.7,0.6s7.7-13.6,8.4-21.5c0.3-3.3,0-7.8-0.5-11.9c1.9,2.3,3.9,5.6,4.8,9.6
								C354.3,365.3,347.9,381.9,347.9,381.9z"/>
							<path class="st6" d="M366,261.9c-3.8-0.1-9.6-0.5-17.9-1.5c-19.2-2.4-53,1-68.7,6.6c-3.7,1.3-6.3,2.2-8.2,2.9
								c-0.4-1.4-0.4-2.9,0.9-4.5c1.2-1.5,15.5-7.8,25.6-9.6c22.4-4.1,45.5-3.3,66.4,5.2C364.7,261.2,365.3,261.5,366,261.9z"/>
							<g>
								<path class="st6" d="M273.7,275.2c-0.1-1-2,1-2,0c-0.2,0-0.3,0-0.5,0c-0.9,0-1.8,0.1-2.7,0.1c-0.9,0-1.7,0.1-2.6,0.2
									c-1.8,0.1-3.5,0.3-5.1,0.4c-1,0.1-2,0.2-2.9,0.3c-0.7,0.1-1.4,0.2-2,0.3c-0.7,0.1-1.3,0.2-2,0.3c-1.5,0.2-3,0.5-4.4,0.7
									c-0.7,0.1-1.4,0.3-2.1,0.4c-2.5,0.5-4.9,1.1-7.2,1.7c-0.4,0.1-0.9,0.2-1.3,0.4c-1,0.3-2.1,0.7-3.1,1
									c-0.6,0.2-1.2,0.4-1.7,0.6c-1.1,0.4-2.1,0.8-3.1,1.3c-0.6,0.3-1.2,0.5-1.7,0.8c-0.5,0.2-1,0.5-1.5,0.8
									c-1.5,0.8-2.9,1.6-4.2,2.5c-0.5,0.3-0.9,0.6-1.3,0.9c-1.3,0.9-2.5,1.9-3.6,3c-0.4,0.4-0.7,0.7-1.1,1.1c0,0,0,0,0,0
									c-0.3,0.3-0.7,0.7-1,1c-0.7,0.8-1.4,1.6-2,2.4c-3.5,4.5-5.9,9.9-7.4,16.2c-0.5,4.4-16.4,16.3-18.5,30.9
									c-0.1,1-0.2,2-0.2,2.9c0,3.7,0.6,5.5,1.7,6.2c0-0.2,0-0.4,0-0.6c0-1,0.1-2,0.2-2.9c2.1-14.6,18.1-26.5,18.5-30.9
									c1.5-6.3,4-11.7,7.4-16.2c0.6-0.8,1.3-1.6,2-2.4c0.3-0.4,0.6-0.7,1-1c0,0,0,0,0,0c0.4-0.4,0.7-0.7,1.1-1.1
									c1.1-1.1,2.3-2.1,3.6-3c0.4-0.3,0.9-0.6,1.3-0.9c1.3-0.9,2.7-1.8,4.2-2.5c0.5-0.3,1-0.5,1.5-0.8c0.6-0.3,1.2-0.6,1.7-0.8
									c1-0.5,2-0.9,3.1-1.3c0.6-0.2,1.1-0.4,1.7-0.6c1-0.4,2-0.7,3.1-1c0.4-0.1,0.8-0.3,1.3-0.4c2.3-0.7,4.7-1.2,7.2-1.7
									c0.7-0.1,1.4-0.3,2.1-0.4c1.4-0.3,2.9-0.5,4.4-0.7c0.7-0.1,1.3-0.2,2-0.3c0.7-0.1,1.3-0.2,2-0.3c1-0.1,1.9-0.2,2.9-0.3
									c1.7-0.2,3.4-0.3,5.1-0.4c0.9-0.1,1.7-0.1,2.6-0.2c0.6,0,9.1,0,9.8,0C279.8,280.2,273.7,276.2,273.7,275.2z"/>
								<path class="st6" d="M376.4,280.5h-25.8c6.7,1.5,13,2.8,15.8,3c18.8,1.2,38.8,17.8,46.6,39.1
									C408.2,303.2,392.9,286.7,376.4,280.5z"/>
								<path class="st2" d="M414.3,340.6c-0.1,0.5-0.1,0.9-0.1,1.4c-0.3,2.4-0.6,4.6-0.9,6.5c-0.1,0.4-0.1,0.7-0.1,1c0,0,0,0,0,0.1
									c-0.4,2.8-0.5,5.1-0.4,7.4v0c0.4,5.9,0.7,11.8,0.5,17.7l-0.3,7.1c0,18.3-9.5,44.5-9.5,44.8c-0.9,5.7-4.8,8.6-7.6,10
									c0,0,0,0,0,0c-1.6,0.6-2.7,1-3,1.1c0,0,0,0,0,0l-164.1,0l4.6-33.7c0-1.7,0.1-3,0.1-4c0.6-7.5,3.7-17.5,10.6-36.3
									c1.3-3.5-10.4,3.9-23.1-4.8c-0.3-0.2-0.7-0.5-1-0.7c-0.7-0.5-1.4-1.1-2.1-1.7c-17-15.2-29.9,5.7-29.7-10.8c0-1,0.1-2,0.2-3
									c2.1-14.6,18.1-26.5,18.5-30.9c1.5-6.3,4-11.7,7.4-16.2c0.6-0.8,1.3-1.6,2-2.4c0.3-0.4,0.6-0.7,1-1c0,0,0,0,0,0
									c0.4-0.4,0.7-0.7,1.1-1.1c1.1-1.1,2.3-2.1,3.6-3c0.4-0.3,0.9-0.6,1.3-0.9c1.3-0.9,2.7-1.8,4.2-2.5c0.5-0.3,1-0.5,1.5-0.8
									c0.6-0.3,1.2-0.6,1.7-0.8c1-0.5,2.1-0.9,3.1-1.3c0.6-0.2,1.1-0.4,1.7-0.6c1-0.4,2-0.7,3.1-1c0.4-0.1,0.8-0.3,1.3-0.4
									c2.3-0.7,4.7-1.2,7.2-1.7c0.7-0.1,1.4-0.3,2.1-0.4c1.4-0.3,2.9-0.5,4.4-0.7c0.7-0.1,1.3-0.2,2-0.3c0.7-0.1,1.3-0.2,2-0.3
									c1-0.1,1.9-0.2,2.9-0.3c1.7-0.2,3.4-0.3,5.1-0.4c0.9-0.1,1.7-0.1,2.6-0.2c0.9,0,1.8-0.1,2.7-0.1c5.5-0.3-3.3-4.9,0.8-10
									c1.2-1.4,15.5-7.8,25.6-9.6c22.4-4.1,45.5-3.3,66.4,5.2c3.8,1.6,6.9,4.6,8.4,8.5c1.9,4.8,5,11.3,8.1,12.8
									C400.3,291.8,417.1,315.7,414.3,340.6z"/>
							</g>
							<path class="st11" d="M297.6,279c1.8,6.4,8.8,8.5,16.4,5.4c0.9-0.4,1.9-0.8,2.8-1.4c0.3-0.2,0.6-0.3,0.9-0.5
								c0.7-0.4,1.3-0.9,1.9-1.3c7.9-5.7,12.5-15.3,10.6-22.2c-1.2-4.1-4.4-6.5-8.6-6.8c-0.2,0-0.4,0-0.6,0c-0.3,0-0.6,0-0.9,0
								c-3.1,0.1-6.5,1.2-10,3.3C301.1,261,295.5,271.5,297.6,279z"/>
							<g>
								<path class="st10" d="M339.5,250.8c0,1.1-0.1,2.3-0.2,3.4c0,0,0,0,0,0.1c-0.1,0.5-0.1,0.9-0.2,1.4c-0.3,1.6-0.7,3.1-1.1,4.6
									c-3.3,10-11.1,17.1-20.2,18.4c-0.5,0.1-1.1,0.1-1.6,0.2c-0.4,0-0.9,0-1.3,0c-1.1,0-2.2-0.1-3.3-0.2
									c-13.4-2-22.7-16.3-20.8-31.9c0.6-4.8,2.2-9.1,4.5-12.7c0.6-1,1.2-1.8,1.9-2.7c0.3-0.4,0.7-0.8,1-1.2
									c0.2-0.3,0.5-0.6,0.7-0.8c5.2-5.3,12.3-8.1,19.7-7h0.1C330.9,224.3,339.8,236.7,339.5,250.8z"/>
								<path class="st6" d="M317.7,278.7c-0.5,0.1-1.1,0.1-1.6,0.2c-0.4,0-0.9,0-1.3,0c-1.1,0-2.2-0.1-3.3-0.2
									c-13.4-2-22.7-16.3-20.8-31.9c0.6-4.8,2.2-9.1,4.5-12.7c0.6-1,1.2-1.8,1.9-2.7c0.3-0.4,0.7-0.8,1-1.2
									c0.2-0.3,0.5-0.6,0.7-0.8c5.2-5.3,12.3-8.1,19.7-7h0.1c0.1,0,0.2,0,0.4,0.1c-5.1,0.7-9.8,3.2-13.5,7
									c-0.3,0.3-0.5,0.5-0.7,0.8c-0.4,0.4-0.7,0.8-1,1.2c-1.5,1.8-2.7,3.9-3.7,6.1c-1.3,2.8-2.2,6-2.6,9.3
									C295.3,262.3,304.5,276.5,317.7,278.7z"/>
								<path class="st2" d="M339.5,250.8c0,1.1-0.1,2.3-0.2,3.4c0,0,0,0,0,0.1c-0.1,0.5-0.1,0.9-0.2,1.4c-0.3,1.6-0.7,3.1-1.1,4.6
									c-3.3,10-11.1,17.1-20.2,18.4c-0.5,0.1-1.1,0.1-1.6,0.2c-0.4,0-0.9,0-1.3,0c-1.1,0-2.2-0.1-3.3-0.2
									c-13.4-2-22.7-16.3-20.8-31.9c0.6-4.8,2.2-9.1,4.5-12.7c0.6-1,1.2-1.8,1.9-2.7c0.3-0.4,0.7-0.8,1-1.2
									c0.2-0.3,0.5-0.6,0.7-0.8c5.2-5.3,12.3-8.1,19.7-7h0.1C330.9,224.3,339.8,236.7,339.5,250.8z"/>
								<path class="st11" d="M318.5,222.4L318.5,222.4c-7.5-1.1-14.5,1.7-19.7,7c-0.2,0.3-0.5,0.5-0.7,0.8c-0.3,0.4-0.7,0.8-1,1.2
									c-0.7,0.9-1.3,1.7-1.9,2.7c1.4,1.4,3,2.6,4.7,3.5c4.2,2.3,9,3.2,13.1,3c0.3,0,6.8,1,8.1,5.7c0.7,2.5,1.7,4.8,3.4,6.4
									c1,0.9,2.1,1.7,3.6,2.2c2.4,0.9,5.6,1.2,10,0.6c0.5-0.5,0.8-0.8,1.3-1.3c0,0,0,0,0-0.1c0.1-1.1,0.2-2.3,0.2-3.4
									C339.8,236.7,330.9,224.3,318.5,222.4z"/>
							</g>
							<path class="st12" d="M250.1,331.4c0.1,1.3,0.2,2.7,0.4,4.1c1.2,9-1.7,12.6-1.7,12.6"/>
							<path class="st2" d="M237.1,380.3c3.5-5.1,10.1-20.7,13.2-38.2"/>
							<path class="st2" d="M248.9,346.9c-2.6-3.5-3.2-5.5-4.6-9.7"/>
							<path class="st2" d="M295.8,290.9c4.3,4.1,10.6,4.5,15.7,1.8"/>
							<g>
								<path class="st2" d="M423.8,334.4c0.8-6.9,0.1-15.2-3.4-22.4"/>
								<path class="st2" d="M431.1,333.5c0.3-4,0-8-0.8-11.9"/>
							</g>
							<path class="st12" d="M244.5,393.4c-10,0-22.2-5.5-21.5,4.8c0.7,10.3,28.3,15.6,28.3,15.6L244.5,393.4z"/>
							<g>
								<path class="st10" d="M294.2,407.8c-0.1,6.3,0.1,12.2-1.5,18.4c-0.7,2.7-1.6,5.4-2.5,8c-1,0-1.8,0-2.6-0.1c-0.4,0-0.7,0-1,0
									c-2.1,0-3.5-0.1-4.2-0.1c0,0,0,0,0-0.1c-9.2-0.3-18.4-1.9-24.3-6c-9.3-6.5-11.3-21.4-11.8-27.4c-0.1-1.6-0.1-2.5-0.1-2.5
									s-0.7,0.9-1.8,1.9c-1.8,1.6-4.6,3.5-7.6,2.6c-3.7-1.2-4.2-4.2-4.2-5.5c0-0.4,0-0.6,0-0.6s-0.9,0.1-2.3,0.2c0,0,0,0,0,0
									c-3.2,0.2-3.6,2.1-7.7,0.3c-2.3-1-3.9-2.7-3.9-5.3c0-0.2,0-0.5,0-0.7c0.9-9.8,14-22.7,19.4-22.4c5.2,0.4,8.8,4.6,8.8,4.6
									s2.3-2.3,8.1-0.4c4.5,1.4,5.9,3,6.3,3.8c0.5-0.2,1.7-0.6,4-1.1c6.5-1.4,13.2,6.2,13.2,6.2l11.4,0.2c0.5,0.7,1.7,1.9,1.3,1.1
									c0.4,0.7,0.8,1.4,1.2,2.1c0,0.2,0.6,2,0.7,2.4c0.1,0.4,0.8,4,0.8,3.6C294.5,396.5,294.3,402.2,294.2,407.8z"/>
								<path class="st2" d="M294.2,407.8c-0.1,6.3,0.1,12.2-1.5,18.4c-0.7,2.7-1.6,5.4-2.5,8c-1,0-1.8,0-2.6-0.1c-0.4,0-0.7,0-1,0
									c-2.1,0-3.5-0.1-4.2-0.1c0,0,0,0,0-0.1c-9.2-0.3-18.4-1.9-24.3-6c-9.3-6.5-11.3-21.4-11.8-27.4c-0.1-1.6-0.1-2.5-0.1-2.5
									s-0.7,0.9-1.8,1.9c-1.8,1.6-4.6,3.5-7.6,2.6c-3.7-1.2-4.2-4.2-4.2-5.5c0-0.4,0-0.6,0-0.6s-0.9,0.1-2.3,0.2c0,0,0,0,0,0
									c-3.2,0.2-3.6,2.1-7.7,0.3c-2.3-1-3.9-2.7-3.9-5.3c0-0.2,0-0.5,0-0.7c0.9-9.8,14-22.7,19.4-22.4c5.2,0.4,8.8,4.6,8.8,4.6
									s2.3-2.3,8.1-0.4c4.5,1.4,5.9,3,6.3,3.8c0.5-0.2,1.7-0.6,4-1.1c6.5-1.4,13.2,6.2,13.2,6.2l11.4,0.2c0.5,0.7,1.7,1.9,1.3,1.1
									c0.4,0.7,0.8,1.4,1.2,2.1c0,0.2,0.6,2,0.7,2.4c0.1,0.4,0.8,4,0.8,3.6C294.5,396.5,294.3,402.2,294.2,407.8z"/>
								<path class="st2" d="M232.4,396.4c0,0-0.2-10.4,14.4-23.3"/>
								<path class="st2" d="M246,398c0,0,2.7-10.8,15.4-21"/>
								<path class="st2" d="M248.1,393l-2,6.3c-1.6,4.9,5.5,13.4,18.1-1.4l6.2-6"/>
								<path class="st2" d="M252.1,405.7c10-11.7-0.4-18.2,0-18.2"/>
							</g>
							<g>
								<g>
									<path class="st10" d="M155.6,427.5c-2.8-9.5,4.5-26.3,10.3-27.8c5.7-1.4,11.2,1.3,11.2,1.3s1.6-2.9,8.5-3.1
										c5.4-0.2,7.4,0.9,8.2,1.5c0.5-0.4,1.6-1.1,3.8-2.4c1.9-1.1,4.2-1.4,6.4-1.3c5.5,0.2,10.5,3.1,13.3,7.3l1.4,12.4
										c16.4,4,8.6,17.7,0.4,17.8c-4.9,0-13,1.6-17.1,1.4c-3.1-0.2-5.8-4.3-3.6-6.7c-6.8,4.4-10.7,4.9-12,2.3
										c-0.7-1.5-0.6-5.4-0.6-5.4s-0.4,1.1-1.2,2.4c-1.3,2.1-3.6,4.9-7.1,5c-4.4,0.1-6.1-2.5-6.6-3.7c-0.2-0.4-0.2-0.6-0.2-0.6
										s0.6-0.1-0.9,0.4c0,0-2.8,3.9-7.8,3.6c-2.9-0.2-5.2-1.2-6.2-3.6C155.8,427.9,155.7,427.7,155.6,427.5z"/>
									<path class="st2" d="M155.2,427.5c-2.8-9.5,4.5-26.3,10.3-27.8c5.7-1.4,11.2,1.3,11.2,1.3s1.6-2.9,8.5-3.1
										c5.4-0.2,7.4,0.9,8.2,1.5c0.5-0.4,1.6-1.1,3.8-2.4c1.9-1.1,4.2-1.4,6.4-1.3c5.5,0.2,10.5,3.1,13.3,7.3l1.4,12.4
										c16.4,4,10.6,16.5,2.5,17.8c-9.5,1.6-14.1,2-19.2,1.4c-5.7-0.6-1.1-8.1-6.7-4.7c-9.5,5.9-9.5-5.2-9.5-5.2s-0.4,1.1-1.2,2.4
										c-1.3,2.1-3.6,4.9-7.1,5c-4.4,0.1-6.1-2.5-6.6-3.7c-0.2-0.4-0.2-0.6-0.2-0.6s-3.7,4.3-8.6,4c-2.9-0.2-5.2-1.2-6.2-3.6
										C155.4,427.9,155.3,427.7,155.2,427.5z"/>
									<path class="st2" d="M170.3,427.8c0,0-4.2-9.7,6.5-26.8"/>
									<path class="st2" d="M185.5,424.7c-0.5-6.4,1.7-13,4.6-18.8"/>
									<path class="st2" d="M194.9,429.8c6.2-14.4-7.4-17-7-17.1"/>
								</g>
								<path class="st2" d="M197.8,428.2c3.3-4.8,13.7-12.9,20.5-12.9"/>
							</g>
							<path class="st2" d="M322,288c4.9-6.7,16.9-7.5,28.6-7.5c11.7,0,27.3-0.5,27.7,0"/>
							<path class="st2" d="M285.6,286.6c-3.2-4.8-11.9-11.4-11.9-11.4"/>
						</g>
						<g>
							<path class="st2" d="M339.5,380.3c18.6,2.3,33.2,14.8,33.2,16.3"/>
							<path class="st2" d="M332.7,289.3c0,0,1-6,8.3-8.6c0.8-0.3,8.8-0.1,9.7-0.3"/>
							<path class="st2" d="M322,290.9c0,0-13.5,22.4-8.4,42.6c3.7,14.7,0,32.9,0,32.9"/>
							<path class="st2" d="M289.9,288c0,0-1,20.6-6.5,34.6c-5.5,13.9-14.2,14.7-16.6,30.7"/>
							<path class="st2" d="M289.9,381.8c0,0,0.5-0.3,1.4-0.8c3.1-1.6,10.9-5,16.6-1.3c7.3,4.7,31.7,0.6,31.7,0.6s7.7-13.6,8.4-21.5
								c0.3-3.3,0-7.8-0.5-11.9"/>
						</g>
					</g>
				</g>
				<path class="st2" d="M280,374.4c0,0-6.4-8-14.9-4.5"/>
			</g>
			<g>
				<g>
					<path class="st11" d="M350.9,241.7c-0.7,1.7-3.3,1.4-3.7-0.4c-0.9-4.4-2.7-11.5-5.7-14.7c-4.6-4.9-2.5-8.1,0.9-7
						c3.4,1.1,9.3,11.1,9.4,17.5C351.8,239.1,351.4,240.6,350.9,241.7z"/>
					<path class="st11" d="M330.9,218c-0.6-1-0.2-2.3,0.8-2.8c1-0.5,2.3,0,2.9,1c0.6,1,0.2,2.3-0.8,2.8
						C332.7,219.5,331.4,219.1,330.9,218z"/>
				</g>
			</g>
		</g>
	</g>
	<line class="st2" x1="290.1" y1="434.2" x2="311.5" y2="437.8"/>
	<path class="st2" d="M204,339.7"/>
	<path class="st2" d="M197,342.9c9.1-4.9,16.5-7.6,24.2,2.6c7.7,10.2,15.7,8.9,15.9,4.7c0.2-4.2-4.7-6.6-8.3-6.1"/>
	<g>
		<g>
			<path class="st0" d="M258,429.2L139.8,429l-26-75.7c-1.8-5.2,0.1-8.9,5.7-8.9l100.7-1.8c3.5,0,6.5,2.1,7.7,5.4L258,429.2z"/>
		</g>
		<g>
			<path class="st13" d="M181.4,384.4c-2.8,0-5.1,2.3-5.1,5.1s2.3,5,5.1,5s5-2.3,5-5S184.2,384.4,181.4,384.4z"/>
		</g>
		<g>
			<path class="st0" d="M274.7,437.7l-132.6,0c-2.4,0-4.3-1.9-4.4-4.3v0c0-2.4,1.9-4.3,4.3-4.4l132.6,0c2.4,0,4.3,1.9,4.4,4.3l0,0
				C279,435.7,277.1,437.7,274.7,437.7z"/>
		</g>
	</g>
	<g>
		<path class="st0" d="M462.7,442.4L462.7,442.4c0,2.5-2.1,4.6-4.6,4.6H55.8c-2.5,0-4.6-2.1-4.6-4.6l0,0c0-2.5,2.1-4.6,4.6-4.6
			h402.3C460.6,437.8,462.7,439.8,462.7,442.4z"/>
	</g>
</g>
</svg>
